<svg width="36" height="36" viewBox="0 0 36 36" fill="none" xmlns="http://www.w3.org/2000/svg">
<path d="M19.3333 24H16.6666M22 15.3333C22 14.2725 21.5785 13.2551 20.8284 12.5049C20.0783 11.7548 19.0608 11.3333 18 11.3333C16.9391 11.3333 15.9217 11.7548 15.1715 12.5049C14.4214 13.2551 14 14.2725 14 15.3333C14 17.3935 13.4803 18.804 12.8997 19.737C12.4101 20.5239 12.1652 20.9174 12.1742 21.0272C12.1841 21.1487 12.2099 21.1951 12.3078 21.2677C12.3963 21.3333 12.795 21.3333 13.5925 21.3333H22.4074C23.2049 21.3333 23.6037 21.3333 23.6921 21.2677C23.7901 21.1951 23.8158 21.1487 23.8258 21.0272C23.8347 20.9174 23.5899 20.5239 23.1002 19.737C22.5197 18.804 22 17.3935 22 15.3333Z" stroke="#6C2F80" stroke-width="1.5" stroke-linecap="round" stroke-linejoin="round"/>
</svg>
