<?xml version="1.0" standalone="no"?>
<!DOCTYPE svg PUBLIC "-//W3C//DTD SVG 20010904//EN"
 "http://www.w3.org/TR/2001/REC-SVG-20010904/DTD/svg10.dtd">
<svg version="1.0" xmlns="http://www.w3.org/2000/svg"
 width="200.000000pt" height="200.000000pt" viewBox="0 0 200.000000 200.000000"
 preserveAspectRatio="xMidYMid meet">
<metadata>
Created by potrace 1.16, written by Peter Selinger 2001-2019
</metadata>
<g transform="translate(0.000000,200.000000) scale(0.100000,-0.100000)"
fill="#000000" stroke="none">
<path d="M189 1811 c-20 -21 -29 -39 -29 -63 0 -30 60 -93 778 -810 717 -718
780 -778 810 -778 46 0 92 46 92 91 0 30 -24 57 -232 266 l-232 233 3 41 c2
37 -1 45 -44 86 -42 40 -152 103 -180 103 -6 0 -51 41 -100 90 l-90 90 56 0
c72 0 197 -32 274 -70 33 -16 91 -54 128 -85 87 -72 124 -80 167 -37 50 50 43
84 -33 157 -163 155 -413 234 -649 207 l-102 -12 -58 57 -59 58 33 14 c62 25
170 42 277 42 250 0 453 -84 661 -276 46 -42 67 -55 91 -55 42 0 89 47 89 90
0 65 -186 224 -364 310 -258 127 -562 144 -840 49 l-88 -31 -133 131 c-114
114 -136 131 -164 131 -23 0 -41 -9 -62 -29z"/>
<path d="M227 1351 c-79 -81 -86 -113 -38 -162 47 -47 79 -40 159 33 37 34 69
66 71 71 3 9 -108 127 -120 127 -3 0 -36 -31 -72 -69z"/>
<path d="M446 1127 c-79 -75 -86 -108 -36 -159 26 -26 36 -30 65 -25 20 3 55
23 82 46 27 22 59 49 73 60 l25 20 -60 60 c-33 34 -65 61 -72 61 -6 0 -41 -28
-77 -63z"/>
<path d="M717 919 c-94 -62 -121 -126 -76 -183 31 -39 88 -36 142 8 23 18 58
41 77 51 19 10 37 19 39 22 5 4 -120 133 -129 133 -4 0 -27 -14 -53 -31z"/>
<path d="M925 656 c-42 -18 -83 -69 -91 -112 -21 -114 41 -203 149 -212 67 -5
117 16 155 66 23 30 27 45 27 103 0 73 -14 103 -68 143 -34 25 -129 32 -172
12z"/>
</g>
</svg>
